<?xml version="1.0" encoding="UTF-8"?>
<svg xmlns="http://www.w3.org/2000/svg" xmlns:xlink="http://www.w3.org/1999/xlink" viewBox="0 0 1080 1080">
  <defs>
    <style>
      .cls-1 {
        clip-path: url(#clippath-6);
      }

      .cls-2 {
        clip-path: url(#clippath-7);
      }

      .cls-3 {
        fill: url(#Gradiente_sem_nome_5);
      }

      .cls-4 {
        clip-path: url(#clippath-4);
      }

      .cls-5 {
        clip-path: url(#clippath-9);
      }

      .cls-6 {
        clip-path: url(#clippath-10);
      }

      .cls-7, .cls-8 {
        fill: #fff;
      }

      .cls-9 {
        fill: url(#Gradiente_sem_nome_7-2);
      }

      .cls-10 {
        clip-path: url(#clippath-11);
      }

      .cls-11 {
        fill: none;
      }

      .cls-12 {
        clip-path: url(#clippath-1);
      }

      .cls-13 {
        isolation: isolate;
      }

      .cls-14 {
        clip-path: url(#clippath-5);
      }

      .cls-15 {
        clip-path: url(#clippath-8);
      }

      .cls-8 {
        filter: url(#drop-shadow-1);
      }

      .cls-16 {
        clip-path: url(#clippath-3);
      }

      .cls-17 {
        fill: url(#Gradiente_sem_nome_7);
      }

      .cls-18 {
        mix-blend-mode: multiply;
      }

      .cls-19 {
        fill: url(#Gradiente_sem_nome_4);
      }

      .cls-20 {
        clip-path: url(#clippath-2);
      }

      .cls-21 {
        fill: url(#Gradiente_sem_nome_4-2);
      }

      .cls-22 {
        fill: url(#Gradiente_sem_nome_5-2);
      }

      .cls-23 {
        clip-path: url(#clippath);
      }
    </style>
    <filter id="drop-shadow-1" x="98.76" y="31.8" width="896.4" height="1030.32" filterUnits="userSpaceOnUse">
      <feOffset dx="7" dy="7"/>
      <feGaussianBlur result="blur" stdDeviation="5"/>
      <feFlood flood-color="#1d1d1b" flood-opacity=".35"/>
      <feComposite in2="blur" operator="in"/>
      <feComposite in="SourceGraphic"/>
    </filter>
    <clipPath id="clippath">
      <rect class="cls-11" x="195.82" y="269.32" width="541.37" height="541.36"/>
    </clipPath>
    <clipPath id="clippath-1">
      <path class="cls-11" d="M195.82,540.01c0,149.51,121.2,270.67,270.69,270.67s270.68-121.16,270.68-270.67-121.18-270.69-270.68-270.69-270.69,121.19-270.69,270.69"/>
    </clipPath>
    <linearGradient id="Gradiente_sem_nome_4" data-name="Gradiente sem nome 4" x1="651.23" y1="4254.48" x2="657.49" y2="4254.48" gradientTransform="translate(-367230.31 -56013.62) rotate(90) scale(86.43 -86.43)" gradientUnits="userSpaceOnUse">
      <stop offset="0" stop-color="#e21518"/>
      <stop offset="1" stop-color="#e21518"/>
    </linearGradient>
    <clipPath id="clippath-2">
      <rect class="cls-11" x="296.03" y="326" width="441.16" height="441.17"/>
    </clipPath>
    <clipPath id="clippath-3">
      <path class="cls-11" d="M296.03,546.57c0,121.85,98.77,220.6,220.59,220.6s220.57-98.75,220.57-220.6-98.75-220.57-220.57-220.57-220.59,98.74-220.59,220.57"/>
    </clipPath>
    <linearGradient id="Gradiente_sem_nome_5" data-name="Gradiente sem nome 5" x1="734.01" y1="4258.54" x2="740.28" y2="4258.54" gradientTransform="translate(300452.41 52464.82) rotate(-90) scale(70.43 -70.43)" gradientUnits="userSpaceOnUse">
      <stop offset="0" stop-color="#9b1917"/>
      <stop offset=".06" stop-color="#9f1817"/>
      <stop offset=".69" stop-color="#cf1617"/>
      <stop offset="1" stop-color="#e21518"/>
    </linearGradient>
    <clipPath id="clippath-4">
      <rect class="cls-11" x="342.81" y="269.33" width="541.37" height="541.35"/>
    </clipPath>
    <clipPath id="clippath-5">
      <path class="cls-11" d="M342.81,540.01c0,149.49,121.19,270.67,270.68,270.67s270.7-121.18,270.7-270.67-121.21-270.68-270.7-270.68-270.68,121.16-270.68,270.68"/>
    </clipPath>
    <linearGradient id="Gradiente_sem_nome_4-2" data-name="Gradiente sem nome 4" x1="725.51" y1="4260.09" x2="731.77" y2="4260.09" gradientTransform="translate(368784.71 63511.55) rotate(-90) scale(86.42 -86.42)" xlink:href="#Gradiente_sem_nome_4"/>
    <clipPath id="clippath-6">
      <rect class="cls-11" x="342.81" y="312.85" width="441.16" height="441.16"/>
    </clipPath>
    <clipPath id="clippath-7">
      <path class="cls-11" d="M342.81,533.44c0,121.83,98.75,220.57,220.57,220.57s220.59-98.74,220.59-220.57-98.76-220.59-220.59-220.59-220.57,98.74-220.57,220.59"/>
    </clipPath>
    <linearGradient id="Gradiente_sem_nome_5-2" data-name="Gradiente sem nome 5" x1="642.61" y1="4258.03" x2="648.87" y2="4258.03" gradientTransform="translate(-299336.61 -44947.02) rotate(90) scale(70.43 -70.43)" xlink:href="#Gradiente_sem_nome_5"/>
    <clipPath id="clippath-8">
      <rect class="cls-11" x="409.17" y="382.56" width="328.02" height="328.02"/>
    </clipPath>
    <clipPath id="clippath-9">
      <path class="cls-11" d="M409.17,546.57c0,90.6,73.43,164.01,164.01,164.01s164-73.41,164-164.01-73.43-164.01-164-164.01-164.01,73.43-164.01,164.01"/>
    </clipPath>
    <linearGradient id="Gradiente_sem_nome_7" data-name="Gradiente sem nome 7" x1="627.18" y1="4253.9" x2="633.44" y2="4253.9" gradientTransform="translate(-222191.79 -32461.05) rotate(90) scale(52.37 -52.37)" gradientUnits="userSpaceOnUse">
      <stop offset="0" stop-color="#9b1917"/>
      <stop offset=".34" stop-color="#9d1817"/>
      <stop offset=".55" stop-color="#a51817"/>
      <stop offset=".72" stop-color="#b41717"/>
      <stop offset=".87" stop-color="#c81617"/>
      <stop offset="1" stop-color="#e21518"/>
    </linearGradient>
    <clipPath id="clippath-10">
      <rect class="cls-11" x="342.81" y="369.43" width="328.02" height="328.02"/>
    </clipPath>
    <clipPath id="clippath-11">
      <path class="cls-11" d="M342.81,533.44c0,90.58,73.43,164,164.01,164s164.01-73.43,164.01-164-73.44-164.01-164.01-164.01-164.01,73.41-164.01,164.01"/>
    </clipPath>
    <linearGradient id="Gradiente_sem_nome_7-2" data-name="Gradiente sem nome 7" x1="749.77" y1="4263.16" x2="756.03" y2="4263.16" gradientTransform="translate(223750.34 39959.66) rotate(-90) scale(52.37 -52.37)" xlink:href="#Gradiente_sem_nome_7"/>
  </defs>
  <g class="cls-13">
    <g id="Camada_1" data-name="Camada 1">
      <g>
        <polygon class="cls-8" points="106.99 290 106.99 790 540 1040 973.01 790 973.01 290 540 40 106.99 290"/>
        <g>
          <g class="cls-18">
            <g class="cls-23">
              <g class="cls-12">
                <rect class="cls-19" x="195.82" y="269.32" width="541.37" height="541.36"/>
              </g>
            </g>
          </g>
          <g class="cls-18">
            <g class="cls-20">
              <g class="cls-16">
                <rect class="cls-3" x="281.18" y="311.15" width="470.86" height="470.86" transform="translate(-36.87 37.37) rotate(-4)"/>
              </g>
            </g>
          </g>
          <g class="cls-18">
            <g class="cls-4">
              <g class="cls-14">
                <rect class="cls-21" x="342.81" y="269.33" width="541.38" height="541.35"/>
              </g>
            </g>
          </g>
          <g class="cls-18">
            <g class="cls-1">
              <g class="cls-2">
                <rect class="cls-22" x="327.96" y="298.01" width="470.85" height="470.86" transform="translate(-35.84 40.6) rotate(-4)"/>
              </g>
            </g>
          </g>
          <g class="cls-18">
            <g class="cls-15">
              <g class="cls-5">
                <rect class="cls-17" x="409.17" y="382.56" width="328.02" height="328.02"/>
              </g>
            </g>
          </g>
          <g class="cls-18">
            <g class="cls-6">
              <g class="cls-10">
                <rect class="cls-9" x="342.81" y="369.43" width="328.02" height="328.02"/>
              </g>
            </g>
          </g>
          <path class="cls-7" d="M648.58,513.33l-6.48,49.7c-1.08,7.6-6.64,15.77-16.3,15.77-4.32-.25-7.75-.65-9.88-3.26-1.9-2.33-2.44-6.19-1.65-11.82l6.48-52.1c1.08-10.62,9.16-15.38,16.7-15.38,3.28,0,6.08,1.18,8.06,3.43,2.72,3.04,3.78,7.77,3.08,13.66M543.7,510.75l-6.13,52.82c-.99,7.63-6.46,15.87-16.16,15.97-4.27-.2-7.69-.55-9.87-3.14-1.94-2.31-2.52-6.16-1.8-11.8l6.8-52.87c1-11.22,10.02-15.5,15.48-15.57h.39c4.4-.01,7.31.99,9.19,3.12,2.09,2.39,2.78,6.14,2.09,11.46M414.86,512.91c1.14-8.05,8.04-16.7,19.44-16.7h.51c.93-.01,9.5-.09,10.47,7.66.91,9.82-9.38,16.86-24.97,28.99l-3.68,2.87-5.33,3.75,3.56-26.57ZM682.64,569.8c-2-4.74-6.56-8.05-11.06-8.05,0,0-.67.06-1.28.19-.61.13-3.23.88-3.23.88l6.56-50.19c1.4-10.8-1.57-21-8.38-28.76-6.75-7.69-16.35-11.92-27.03-11.92h-.29c-22.07,0-38.12,16.76-42.27,43.16v.02c-.96,4.67-4.78,9.34-6.5,11.24l-25.36,25.55,14.59-109.61c.44-3.34-.45-6.65-2.49-9.32-2.07-2.66-5.04-4.37-8.37-4.79-.54-.08-1.09-.12-1.63-.12-6.31,0-11.67,4.72-12.49,10.97l-4.65,35.81-.51-.21c-4.37-1.74-9.03-2.62-13.81-2.62-21.1,0-39.96,16.48-42.94,37.52l-1.15,6.61c-.1.3-.21.61-.29.95-.93,3.38-3.03,6.36-3.88,7.49l-29.53,33.89-2.94,3.01c-11.18,11.43-19.47,18.26-33.43,18.26-9.44,0-10.52-9.7-10.52-9.7l26.5-18.45c17.7-13.77,36.49-26.54,33.69-50.37-.01-.19-.03-.38-.07-.56-4.35-23.06-23.86-28.64-35.05-28.64h-.44c-21.74.07-39.74,15.87-42.8,37.56l-7.06,48.72-7.55,5.32c-2.76,1.93-4.59,4.83-5.17,8.14-.57,3.33.18,6.66,2.11,9.41,2.36,3.35,6.21,5.36,10.32,5.36,1.25,0,2.48-.19,3.67-.56l.31-.09s1.33,4.64,3.4,7.13c6.48,7.87,16.51,11.93,27.68,11.93,25.22,0,38.2-12.29,51.94-26.34l3.05-3.12c.13-.11.24-.24.34-.36l9.2-10.11-.13,1.28c-1.07,10.22,1.96,19.28,8.31,26.6,6.37,7.33,15.48,11.58,25.66,11.98l1.01.03-.06.07c.19.01.43.03.68.04,13.69,0,25.08-3.65,33.82-10.84,6.61-4.78,12.43-10.74,18.06-16.49l3.04-3.12c.14-.14.27-.28.39-.42l.5-.54,13.98-13.08-.62,4.3c-.08.6-.11,1.21-.16,1.79l-.03.67-9.24,70.64c-.44,3.34.45,6.63,2.51,9.31,2.05,2.67,5.02,4.37,8.36,4.8.55.09,1.1.11,1.64.11,6.3,0,11.67-4.71,12.48-10.97l5.08-39.07.51.21c4.38,1.79,9.06,2.7,13.92,2.7h.42c5.38-.05,10.73-1.2,15.88-3.39.37-.13.7-.24,1.03-.38l35.65-15.2c3.06-1.3,5.36-3.68,6.48-6.74,1.11-2.99.98-6.37-.34-9.52"/>
        </g>
      </g>
    </g>
  </g>
</svg>