<?xml version="1.0" encoding="UTF-8"?>
<svg xmlns="http://www.w3.org/2000/svg" xmlns:xlink="http://www.w3.org/1999/xlink" viewBox="0 0 1080 1080">
  <defs>
    <style>
      .cls-1 {
        fill: url(#linear-gradient-2);
      }

      .cls-1, .cls-2 {
        mix-blend-mode: overlay;
      }

      .cls-3, .cls-4 {
        fill: #fff;
      }

      .cls-5 {
        mask: url(#mask);
      }

      .cls-6 {
        fill: url(#radial-gradient);
      }

      .cls-7 {
        isolation: isolate;
      }

      .cls-8 {
        fill: #727d82;
      }

      .cls-2 {
        fill: url(#linear-gradient-3);
      }

      .cls-4 {
        filter: url(#drop-shadow-1);
      }

      .cls-9 {
        fill: url(#linear-gradient);
        mix-blend-mode: multiply;
        opacity: .5;
      }
    </style>
    <filter id="drop-shadow-1" x="98.8" y="31.8" width="896.4" height="1030.32" filterUnits="userSpaceOnUse">
      <feOffset dx="7" dy="7"/>
      <feGaussianBlur result="blur" stdDeviation="5"/>
      <feFlood flood-color="#1d1d1b" flood-opacity=".35"/>
      <feComposite in2="blur" operator="in"/>
      <feComposite in="SourceGraphic"/>
    </filter>
    <radialGradient id="radial-gradient" cx="254.52" cy="540" fx="254.52" fy="540" r="35.01" gradientUnits="userSpaceOnUse">
      <stop offset="0" stop-color="#e74128"/>
      <stop offset="1" stop-color="#891812"/>
    </radialGradient>
    <linearGradient id="linear-gradient" x1="215.25" y1="568.85" x2="293.79" y2="490.3" gradientUnits="userSpaceOnUse">
      <stop offset="0" stop-color="#55676f"/>
      <stop offset=".05" stop-color="#738289"/>
      <stop offset=".12" stop-color="#9ea8ac"/>
      <stop offset=".2" stop-color="#c1c7ca"/>
      <stop offset=".27" stop-color="#dcdfe1"/>
      <stop offset=".34" stop-color="#eff1f1"/>
      <stop offset=".42" stop-color="#fbfbfb"/>
      <stop offset=".5" stop-color="#fff"/>
      <stop offset=".56" stop-color="#f8f9f9"/>
      <stop offset=".64" stop-color="#e7e9ea"/>
      <stop offset=".74" stop-color="#cad0d2"/>
      <stop offset=".84" stop-color="#a2acb0"/>
      <stop offset=".95" stop-color="#6f7e85"/>
      <stop offset="1" stop-color="#55676f"/>
    </linearGradient>
    <linearGradient id="linear-gradient-2" x1="192.7" y1="509.67" x2="318.14" y2="509.67" gradientUnits="userSpaceOnUse">
      <stop offset="0" stop-color="#fff"/>
      <stop offset=".1" stop-color="#f8f8f8"/>
      <stop offset=".23" stop-color="#e7e7e7"/>
      <stop offset=".39" stop-color="#cbcaca"/>
      <stop offset=".56" stop-color="#a3a2a3"/>
      <stop offset=".74" stop-color="#716e6f"/>
      <stop offset=".93" stop-color="#343032"/>
      <stop offset=".98" stop-color="#221e20"/>
    </linearGradient>
    <mask id="mask" x="192.7" y="481.28" width="125.44" height="56.79" maskUnits="userSpaceOnUse">
      <rect class="cls-1" x="192.7" y="481.28" width="125.44" height="56.79"/>
    </mask>
    <linearGradient id="linear-gradient-3" x1="253.36" y1="546.39" x2="253.36" y2="491.88" gradientUnits="userSpaceOnUse">
      <stop offset="0" stop-color="#fff" stop-opacity="0"/>
      <stop offset="1" stop-color="#fff"/>
    </linearGradient>
  </defs>
  <g class="cls-7">
    <g id="Camada_1" data-name="Camada 1">
      <g>
        <polygon class="cls-4" points="106.99 290 106.99 790 540 1040 973.01 790 973.01 290 540 40 106.99 290"/>
        <g>
          <g>
            <g>
              <path class="cls-8" d="M342.82,595.75v-20.24h4.03l4.79,14.33c.44,1.34.76,2.34.97,3,.23-.74.59-1.82,1.08-3.25l4.85-14.09h3.6v20.24h-2.58v-16.94l-5.88,16.94h-2.42l-5.86-17.23v17.23h-2.58Z"/>
              <path class="cls-8" d="M375.57,595.75v-20.24h14.64v2.39h-11.96v6.2h11.2v2.37h-11.2v6.89h12.43v2.39h-15.11Z"/>
              <path class="cls-8" d="M403.42,595.75v-20.24h6.97c1.57,0,2.78.1,3.6.29,1.16.27,2.15.75,2.97,1.45,1.07.9,1.87,2.05,2.4,3.46.53,1.4.79,3.01.79,4.81,0,1.54-.18,2.9-.54,4.09-.36,1.19-.82,2.17-1.38,2.95-.56.78-1.18,1.39-1.84,1.84-.67.45-1.47.78-2.42,1.01-.94.23-2.03.34-3.25.34h-7.31ZM406.1,593.36h4.32c1.33,0,2.38-.12,3.14-.37.76-.25,1.37-.6,1.82-1.05.64-.63,1.13-1.49,1.48-2.56.36-1.07.53-2.37.53-3.9,0-2.12-.35-3.74-1.04-4.88-.69-1.14-1.54-1.9-2.53-2.28-.72-.28-1.87-.41-3.47-.41h-4.25v15.47Z"/>
              <path class="cls-8" d="M433.35,595.75v-20.24h2.68v20.24h-2.68Z"/>
              <path class="cls-8" d="M464.25,588.65l2.68.68c-.56,2.2-1.57,3.88-3.03,5.03-1.46,1.16-3.24,1.73-5.35,1.73s-3.96-.44-5.32-1.33c-1.37-.89-2.41-2.17-3.12-3.86-.71-1.68-1.07-3.49-1.07-5.43,0-2.11.4-3.95,1.21-5.52.81-1.57,1.95-2.76,3.44-3.58,1.49-.81,3.12-1.22,4.91-1.22,2.02,0,3.73.52,5.11,1.55,1.38,1.03,2.34,2.48,2.89,4.35l-2.64.62c-.47-1.47-1.15-2.55-2.04-3.22-.89-.67-2.02-1.01-3.37-1.01-1.56,0-2.86.37-3.9,1.12-1.04.75-1.78,1.75-2.2,3-.42,1.26-.63,2.55-.63,3.89,0,1.72.25,3.22.75,4.51.5,1.28,1.28,2.24,2.34,2.88,1.06.63,2.2.95,3.44.95,1.5,0,2.77-.43,3.81-1.3,1.04-.86,1.74-2.15,2.11-3.85Z"/>
              <path class="cls-8" d="M477.05,595.75l7.77-20.24h2.89l8.29,20.24h-3.05l-2.36-6.13h-8.46l-2.22,6.13h-2.84ZM482.89,587.44h6.86l-2.11-5.61c-.64-1.7-1.12-3.1-1.44-4.2-.26,1.3-.62,2.59-1.09,3.87l-2.22,5.94Z"/>
              <path class="cls-8" d="M507.08,595.75v-20.24h2.68v17.86h9.97v2.39h-12.65Z"/>
              <path class="cls-8" d="M552.46,595.75v-17.85h-6.67v-2.39h16.05v2.39h-6.7v17.85h-2.68Z"/>
              <path class="cls-8" d="M573.69,595.75v-20.24h14.64v2.39h-11.96v6.2h11.2v2.37h-11.2v6.89h12.43v2.39h-15.11Z"/>
              <path class="cls-8" d="M615.99,588.65l2.68.68c-.56,2.2-1.57,3.88-3.03,5.03-1.46,1.16-3.24,1.73-5.35,1.73s-3.96-.44-5.32-1.33c-1.37-.89-2.41-2.17-3.12-3.86-.71-1.68-1.07-3.49-1.07-5.43,0-2.11.4-3.95,1.21-5.52.81-1.57,1.95-2.76,3.44-3.58,1.49-.81,3.12-1.22,4.91-1.22,2.03,0,3.73.52,5.11,1.55,1.38,1.03,2.34,2.48,2.88,4.35l-2.64.62c-.47-1.47-1.15-2.55-2.04-3.22-.89-.67-2.02-1.01-3.37-1.01-1.56,0-2.86.37-3.9,1.12-1.04.75-1.78,1.75-2.2,3-.42,1.26-.63,2.55-.63,3.89,0,1.72.25,3.22.75,4.51.5,1.28,1.28,2.24,2.34,2.88,1.06.63,2.2.95,3.44.95,1.5,0,2.77-.43,3.81-1.3,1.04-.86,1.74-2.15,2.11-3.85Z"/>
              <path class="cls-8" d="M631.1,595.75v-20.24h2.68v8.31h10.52v-8.31h2.68v20.24h-2.68v-9.54h-10.52v9.54h-2.68Z"/>
              <path class="cls-8" d="M660.46,595.75v-20.24h2.75l10.63,15.89v-15.89h2.57v20.24h-2.75l-10.63-15.91v15.91h-2.57Z"/>
              <path class="cls-8" d="M689.15,585.89c0-3.36.9-5.99,2.71-7.89,1.8-1.9,4.13-2.85,6.99-2.85,1.87,0,3.55.45,5.05,1.34,1.5.89,2.65,2.14,3.43,3.74.79,1.6,1.18,3.41,1.18,5.43s-.41,3.89-1.24,5.51c-.83,1.62-2,2.85-3.52,3.68-1.52.83-3.16,1.25-4.92,1.25-1.91,0-3.61-.46-5.11-1.38-1.5-.92-2.64-2.18-3.41-3.77-.77-1.59-1.16-3.28-1.16-5.05ZM691.91,585.93c0,2.44.66,4.36,1.97,5.76,1.31,1.4,2.96,2.11,4.94,2.11s3.68-.71,4.98-2.13c1.3-1.42,1.95-3.43,1.95-6.03,0-1.65-.28-3.09-.83-4.32-.56-1.23-1.37-2.18-2.44-2.86-1.07-.68-2.28-1.01-3.61-1.01-1.9,0-3.53.65-4.9,1.95-1.37,1.3-2.05,3.48-2.05,6.52Z"/>
              <path class="cls-8" d="M720.9,595.75v-20.24h2.68v17.86h9.97v2.39h-12.65Z"/>
              <path class="cls-8" d="M744.97,585.89c0-3.36.9-5.99,2.71-7.89,1.8-1.9,4.13-2.85,6.99-2.85,1.87,0,3.55.45,5.05,1.34,1.5.89,2.64,2.14,3.43,3.74.79,1.6,1.18,3.41,1.18,5.43s-.41,3.89-1.24,5.51c-.83,1.62-2,2.85-3.52,3.68-1.52.83-3.16,1.25-4.92,1.25-1.91,0-3.61-.46-5.11-1.38-1.5-.92-2.64-2.18-3.41-3.77-.77-1.59-1.16-3.28-1.16-5.05ZM747.74,585.93c0,2.44.66,4.36,1.97,5.76,1.31,1.4,2.96,2.11,4.94,2.11s3.68-.71,4.98-2.13c1.3-1.42,1.95-3.43,1.95-6.03,0-1.65-.28-3.09-.84-4.32-.56-1.23-1.37-2.18-2.44-2.86-1.07-.68-2.28-1.01-3.61-1.01-1.9,0-3.53.65-4.9,1.95-1.37,1.3-2.05,3.48-2.05,6.52Z"/>
              <path class="cls-8" d="M786.31,587.81v-2.38h8.57s0,7.5,0,7.5c-1.32,1.05-2.67,1.84-4.07,2.37-1.4.53-2.83.79-4.31.79-1.99,0-3.79-.43-5.42-1.28-1.62-.85-2.85-2.08-3.68-3.69-.83-1.61-1.24-3.41-1.24-5.4s.41-3.81,1.24-5.52c.82-1.71,2.01-2.97,3.55-3.8,1.55-.83,3.33-1.24,5.34-1.24,1.46,0,2.79.24,3.97.71,1.18.48,2.11,1.13,2.78,1.98.67.85,1.18,1.95,1.53,3.31l-2.42.66c-.3-1.03-.68-1.84-1.13-2.43-.45-.59-1.1-1.06-1.93-1.41-.84-.36-1.77-.53-2.79-.53-1.23,0-2.28.19-3.18.56-.89.37-1.61.86-2.16,1.47-.55.61-.97,1.28-1.28,2-.52,1.25-.77,2.61-.77,4.07,0,1.81.31,3.32.93,4.53.62,1.21,1.53,2.12,2.71,2.71,1.19.59,2.45.88,3.78.88,1.16,0,2.29-.22,3.4-.67,1.11-.45,1.94-.92,2.51-1.43v-3.77h-5.95Z"/>
              <path class="cls-8" d="M808.34,595.75v-20.24h2.68v20.24h-2.68Z"/>
              <path class="cls-8" d="M824.84,595.75v-20.24h14.64v2.39h-11.96v6.2h11.2v2.37h-11.2v6.89h12.43v2.39h-15.11Z"/>
              <path class="cls-8" d="M851.79,589.25l2.53-.22c.12,1.01.4,1.84.83,2.49.44.65,1.12,1.17,2.04,1.57.92.4,1.96.6,3.11.6,1.02,0,1.92-.15,2.71-.46.78-.3,1.37-.72,1.74-1.25.38-.53.57-1.11.57-1.73s-.18-1.19-.55-1.66c-.37-.48-.98-.87-1.82-1.19-.54-.21-1.74-.54-3.6-.99-1.86-.45-3.16-.87-3.91-1.26-.97-.51-1.69-1.14-2.16-1.88-.48-.75-.71-1.59-.71-2.52,0-1.02.29-1.98.87-2.87.58-.89,1.43-1.56,2.54-2.02,1.11-.46,2.35-.69,3.71-.69,1.5,0,2.82.24,3.97.72,1.14.48,2.03,1.19,2.64,2.13.62.94.95,2,.99,3.19l-2.57.19c-.14-1.28-.61-2.25-1.4-2.9-.8-.65-1.97-.98-3.53-.98s-2.8.3-3.54.89c-.74.59-1.11,1.31-1.11,2.15,0,.73.26,1.32.79,1.79.52.47,1.86.95,4.04,1.44,2.18.49,3.67.92,4.48,1.29,1.18.54,2.05,1.23,2.61,2.07.56.83.84,1.79.84,2.88s-.31,2.09-.92,3.05c-.62.95-1.5,1.69-2.66,2.22-1.16.53-2.46.79-3.9.79-1.83,0-3.37-.27-4.61-.8-1.24-.53-2.21-1.34-2.91-2.41-.7-1.07-1.08-2.28-1.11-3.64Z"/>
            </g>
            <g>
              <path class="cls-8" d="M339.48,529.32l12.92-1.3c1.51,8.43,6.3,12.64,14.36,12.64,8.61,0,12.92-3.01,12.92-9.03,0-2.28-.94-4-2.82-5.17-1.88-1.16-6.53-2.67-13.94-4.53-14.02-3.52-21.03-10.09-21.03-19.7,0-5.86,2.2-10.38,6.6-13.56,4.4-3.18,10.19-4.77,17.39-4.77,16.35,0,24.76,6.64,25.22,19.93l-13.26.55c-1.05-6.32-5.08-9.48-12.09-9.48-7.42,0-11.13,2.14-11.13,6.42,0,1.41.65,2.75,1.97,4.03,1.31,1.28,5.42,2.79,12.34,4.54,11.03,2.86,17.8,6.01,20.3,9.47,2.5,3.45,3.75,7.52,3.75,12.18,0,13.55-8.77,20.32-26.32,20.32-16.31,0-25.36-7.51-27.14-22.54Z"/>
              <path class="cls-8" d="M416.17,550.69v-54.63h-19.51v-11.13h52.22v11.13h-19.45v54.63h-13.26Z"/>
              <path class="cls-8" d="M457.4,484.94h13.26v35.55c0,5.26.18,9.08.55,11.46.37,2.38,1.63,4.38,3.78,6,2.15,1.63,5.15,2.44,9,2.44,4.86,0,8.17-1.14,9.93-3.43,1.76-2.29,2.65-7.53,2.65-15.72v-36.3h13.26v34.53c0,8.05-.49,14.08-1.48,18.09-.99,4.01-3.4,7.37-7.25,10.09-3.85,2.72-9.41,4.08-16.7,4.08s-12.67-1.16-16.7-3.47c-4.03-2.31-6.76-5.32-8.18-9.03-1.42-3.71-2.13-10.14-2.13-19.29v-35.01Z"/>
              <path class="cls-8" d="M518.7,484.94h24.26c6.83,0,12.37.94,16.63,2.81,4.26,1.88,7.7,5.48,10.31,10.79,2.61,5.32,3.92,11.95,3.92,19.93,0,21.49-10.06,32.23-30.17,32.23h-24.94v-65.76ZM531.96,496.07v43.57h9.9c6.78,0,11.51-1.47,14.19-4.4,2.68-2.93,4.02-8.73,4.02-17.39,0-6.46-.82-11.26-2.47-14.4-1.65-3.14-3.77-5.15-6.36-6.05-2.59-.89-7.02-1.34-13.3-1.34h-5.98Z"/>
              <path class="cls-8" d="M582.1,550.76v-65.76h13.26v25.9h26.04v-25.9h13.26v65.76h-13.26v-28.72h-26.04v28.72h-13.26Z"/>
              <path class="cls-8" d="M642.71,550.76v-65.76h48.79v11.13h-35.53v14.57h33.05v11.06h-33.05v17.93h36.76v11.06h-50.03Z"/>
              <path class="cls-8" d="M763.31,550.76h-14.43l-5.61-14.91h-26.38l-5.45,14.91h-14.09l25.66-65.76h14.07l26.24,65.76ZM738.92,524.72l-9.04-24.4-8.92,24.4h17.96Z"/>
              <path class="cls-8" d="M770.39,550.76v-65.76h27.97c8.66,0,15.13,1.3,19.41,3.92,4.28,2.61,6.43,7.45,6.43,14.5,0,10.54-5.79,16.65-17.38,18.35,4.49,2.33,9.37,7.71,14.63,16.14l8.03,12.85h-15.88l-14.28-21.3c-1.42-2.1-3-3.66-4.74-4.67-1.74-1.01-4.49-1.51-8.25-1.51h-2.68v27.49h-13.26ZM783.65,512.83h9.8c6.67,0,11.17-.56,13.5-1.68,2.33-1.12,3.5-3.4,3.5-6.84,0-3.25-.96-5.43-2.88-6.53-1.92-1.1-6.44-1.65-13.57-1.65h-10.35v16.7Z"/>
              <path class="cls-8" d="M851.47,550.76v-54.63h-19.51v-11.13h52.22v11.13h-19.45v54.63h-13.26Z"/>
            </g>
          </g>
          <g>
            <path class="cls-3" d="M254.32,596.18c-8.13-.04-12.66-3.71-19.52-9.26-3.39-2.74-8.56-7.13-13.88-12.41-16.04-15.94-24.23-30.6-25.03-44.82-.66-11.77,3.51-23.04,11.74-31.75,8.49-8.98,20.46-14.13,32.84-14.13,4.79,0,9.51.77,14.05,2.28,4.54-1.51,9.25-2.28,14.05-2.28,12.39,0,24.36,5.15,32.85,14.14,8.23,8.71,12.4,19.98,11.74,31.75-.8,14.23-8.99,28.89-25.03,44.82-5.33,5.3-10.49,9.67-13.88,12.41-6.89,5.58-11.44,9.25-19.66,9.25h-.25Z"/>
            <path class="cls-6" d="M268.57,506.27c-5.33,0-10.22,1.89-14.05,5.03-3.83-3.14-8.72-5.03-14.05-5.03-12.24,0-22.85,9.94-22.16,22.16,1.13,20.05,36.1,45.4,36.21,45.3.11.1,35.08-25.24,36.21-45.3.69-12.22-9.92-22.16-22.16-22.16Z"/>
            <path class="cls-9" d="M254.32,596.18c-8.13-.04-12.66-3.71-19.52-9.26-3.39-2.74-8.55-7.12-13.88-12.41-16.04-15.94-24.23-30.6-25.03-44.82-.66-11.77,3.51-23.04,11.74-31.75,8.49-8.98,20.46-14.14,32.85-14.14,4.79,0,9.51.77,14.05,2.28,4.54-1.51,9.25-2.28,14.05-2.28,12.38,0,24.36,5.15,32.85,14.14,8.23,8.71,12.4,19.98,11.74,31.75-.81,14.23-8.99,28.89-25.03,44.82-5.32,5.29-10.49,9.67-13.88,12.41-6.89,5.58-11.44,9.25-19.67,9.25h-.25Z"/>
            <g class="cls-5">
              <path class="cls-2" d="M310.9,513.5c-1.97-5.69-5.16-10.98-9.48-15.55-8.49-8.98-20.46-14.14-32.85-14.14-4.79,0-9.51.77-14.05,2.28-4.54-1.51-9.25-2.28-14.05-2.28-12.38,0-24.36,5.15-32.85,14.14-8.23,8.71-12.4,19.98-11.74,31.75.03.51.09,1.01.13,1.52,10.91,3.02,26.31,4.01,44.21-3.86,26.91-11.83,50.89-17.35,70.67-13.86Z"/>
            </g>
          </g>
        </g>
      </g>
    </g>
  </g>
</svg>